# xmcd
#
# Track frame offsets:
#	150
#	16136
#	33989
#	52574
#	65975
#
# Disc length: 1070 seconds
# Revision: 0
# Processed by: cddbd v1.5.2PL0 Copyright (c) Steve Scherf et al.
# Submitted via: dBpowerAMP V12.0
#
DISCID=35042c05
DTITLE=Dana Crowe - Everything
DYEAR=2017
DGENRE=Country
TTITLE0=Everything
TTITLE1=Darlin Darlin
TTITLE2=Rolling in The Deep
TTITLE3=Hurtin
TTITLE4=Shield and Sword
EXTD=
EXTT0=
EXTT1=
EXTT2=
EXTT3=
EXTT4=
PLAYORDER=
